<?xml version="1.0" encoding="UTF-8"?>
<svg xmlns="http://www.w3.org/2000/svg" width="1280" height="760" viewBox="0 0 1280 760" role="img" aria-label="NEPA review risk made visible early">
  <defs>
    <filter id="shadow" x="-20%" y="-20%" width="140%" height="140%">
      <feDropShadow dx="0" dy="14" stdDeviation="14" flood-color="#17202a" flood-opacity="0.12"/>
    </filter>
    <marker id="arrow" viewBox="0 0 10 10" refX="9" refY="5" markerWidth="9" markerHeight="9" orient="auto-start-reverse">
      <path d="M 0 0 L 10 5 L 0 10 z" fill="#8b948d"/>
    </marker>
  </defs>
  <rect width="1280" height="760" rx="28" fill="#f4f6f2"/>
  <rect x="34" y="32" width="1212" height="696" rx="26" fill="#ffffff" stroke="#d4d9d0"/>
  <text x="72" y="86" font-family="Inter, Arial, sans-serif" font-size="34" font-weight="880" fill="#17202a">From package to review risk signal</text>
  <text x="72" y="126" font-family="Inter, Arial, sans-serif" font-size="18" fill="#58615b">Source records, authority logic, and evidence traces converge before decision support is produced.</text>

  <g transform="translate(150 378)" filter="url(#shadow)">
    <rect x="-112" y="-62" width="224" height="124" rx="18" fill="#ffffff" stroke="#d4d9d0"/>
    <rect x="-112" y="-62" width="224" height="8" rx="4" fill="#17202a"/>
    <circle cx="-78" cy="-16" r="9" fill="#17202a"/>
    <text x="-58" y="-10" text-anchor="start" font-family="Inter, Arial, sans-serif" font-size="18" font-weight="870" fill="#17202a">NEPA Package</text>
    <text x="0" y="30" text-anchor="middle" font-family="Inter, Arial, sans-serif" font-size="14" fill="#58615b">draft package,</text><text x="0" y="49" text-anchor="middle" font-family="Inter, Arial, sans-serif" font-size="14" fill="#58615b">appendices, source</text>
  </g>
  <g transform="translate(418 248)" filter="url(#shadow)">
    <rect x="-112" y="-62" width="224" height="124" rx="18" fill="#ffffff" stroke="#d4d9d0"/>
    <rect x="-112" y="-62" width="224" height="8" rx="4" fill="#1f6f68"/>
    <circle cx="-78" cy="-16" r="9" fill="#1f6f68"/>
    <text x="-58" y="-10" text-anchor="start" font-family="Inter, Arial, sans-serif" font-size="18" font-weight="870" fill="#17202a">Authority Logic</text>
    <text x="0" y="30" text-anchor="middle" font-family="Inter, Arial, sans-serif" font-size="14" fill="#58615b">NEPA, USDA, Forest</text><text x="0" y="49" text-anchor="middle" font-family="Inter, Arial, sans-serif" font-size="14" fill="#58615b">Service, Forest Plan</text>
  </g>
  <g transform="translate(418 508)" filter="url(#shadow)">
    <rect x="-112" y="-62" width="224" height="124" rx="18" fill="#ffffff" stroke="#d4d9d0"/>
    <rect x="-112" y="-62" width="224" height="8" rx="4" fill="#835b2f"/>
    <circle cx="-78" cy="-16" r="9" fill="#835b2f"/>
    <text x="-58" y="-10" text-anchor="start" font-family="Inter, Arial, sans-serif" font-size="18" font-weight="870" fill="#17202a">Evidence Trace</text>
    <text x="0" y="30" text-anchor="middle" font-family="Inter, Arial, sans-serif" font-size="14" fill="#58615b">source record to</text><text x="0" y="49" text-anchor="middle" font-family="Inter, Arial, sans-serif" font-size="14" fill="#58615b">finding</text>
  </g>
  <g transform="translate(700 378)" filter="url(#shadow)">
    <circle r="100" fill="#ffffff" stroke="#2e5e88" stroke-width="7"/>
    <circle r="64" fill="#2e5e88" opacity="0.12"/>
    <text x="0" y="-14" text-anchor="middle" font-family="Inter, Arial, sans-serif" font-size="20" font-weight="900" fill="#17202a">Risk Visible</text><text x="0" y="11" text-anchor="middle" font-family="Inter, Arial, sans-serif" font-size="20" font-weight="900" fill="#17202a">Early</text>
    <text x="0" y="38" text-anchor="middle" font-family="Inter, Arial, sans-serif" font-size="14" fill="#58615b">before objection,</text><text x="0" y="57" text-anchor="middle" font-family="Inter, Arial, sans-serif" font-size="14" fill="#58615b">litigation, or rework</text>
  </g>
  <g transform="translate(982 248)" filter="url(#shadow)">
    <rect x="-112" y="-62" width="224" height="124" rx="18" fill="#ffffff" stroke="#d4d9d0"/>
    <rect x="-112" y="-62" width="224" height="8" rx="4" fill="#6f4f86"/>
    <circle cx="-78" cy="-16" r="9" fill="#6f4f86"/>
    <text x="-58" y="-10" text-anchor="start" font-family="Inter, Arial, sans-serif" font-size="18" font-weight="870" fill="#17202a">Decision</text>
    <text x="0" y="30" text-anchor="middle" font-family="Inter, Arial, sans-serif" font-size="14" fill="#58615b">findings, gaps, signer</text><text x="0" y="49" text-anchor="middle" font-family="Inter, Arial, sans-serif" font-size="14" fill="#58615b">readout</text>
  </g>
  <g transform="translate(982 508)" filter="url(#shadow)">
    <rect x="-112" y="-62" width="224" height="124" rx="18" fill="#ffffff" stroke="#d4d9d0"/>
    <rect x="-112" y="-62" width="224" height="8" rx="4" fill="#a65332"/>
    <circle cx="-78" cy="-16" r="9" fill="#a65332"/>
    <text x="-58" y="-10" text-anchor="start" font-family="Inter, Arial, sans-serif" font-size="18" font-weight="870" fill="#17202a">Readiness</text>
    <text x="0" y="30" text-anchor="middle" font-family="Inter, Arial, sans-serif" font-size="14" fill="#58615b">missing sources, stale</text><text x="0" y="49" text-anchor="middle" font-family="Inter, Arial, sans-serif" font-size="14" fill="#58615b">authority, profile gaps</text>
  </g>

  <path d="M 270 378 L 565 378" stroke="#8b948d" stroke-width="6" stroke-linecap="round" marker-end="url(#arrow)"/>
  <path d="M 520 280 L 610 330" stroke="#8b948d" stroke-width="6" stroke-linecap="round" marker-end="url(#arrow)"/>
  <path d="M 520 476 L 610 426" stroke="#8b948d" stroke-width="6" stroke-linecap="round" marker-end="url(#arrow)"/>
  <path d="M 795 344 L 882 282" stroke="#8b948d" stroke-width="6" stroke-linecap="round" marker-end="url(#arrow)"/>
  <path d="M 795 412 L 882 480" stroke="#8b948d" stroke-width="6" stroke-linecap="round" marker-end="url(#arrow)"/>

  <g transform="translate(76 628)" filter="url(#shadow)">
    <rect width="1126" height="70" rx="18" fill="#eef5f2" stroke="#c3d5ce"/>
    <text x="28" y="43" font-family="Inter, Arial, sans-serif" font-size="20" font-weight="850" fill="#1f6f68">Reusable value: focus record repair before the decision path is locked.</text>
  </g>
</svg>