<?xml version="1.0" encoding="UTF-8"?>
<svg xmlns="http://www.w3.org/2000/svg" width="1800" height="1180" viewBox="0 0 1800 1180" role="img" aria-label="Readiness gates and expansion boundary for the NEPA review system">
  <defs>
    <filter id="shadow" x="-20%" y="-20%" width="140%" height="140%">
      <feDropShadow dx="0" dy="14" stdDeviation="14" flood-color="#17202a" flood-opacity="0.12"/>
    </filter>
    <marker id="arrow" viewBox="0 0 10 10" refX="9" refY="5" markerWidth="9" markerHeight="9" orient="auto-start-reverse">
      <path d="M 0 0 L 10 5 L 0 10 z" fill="#8b948d"/>
    </marker>
  </defs>
  <rect width="1800" height="1180" rx="34" fill="#f4f6f2"/>
  <text x="72" y="92" font-family="Inter, Arial, sans-serif" font-size="44" font-weight="880" fill="#17202a">Readiness is a gated state</text>
  <text x="72" y="138" text-anchor="start" font-family="Inter, Arial, sans-serif" font-size="22" fill="#58615b">Reports, PDFs, and viewer scenes are downstream products. The system first verifies source capture, evidence, graph validity, review</text><text x="72" y="165" text-anchor="start" font-family="Inter, Arial, sans-serif" font-size="22" fill="#58615b">outputs, and promotion status.</text>
  <g transform="translate(72 224)" filter="url(#shadow)">
    <rect width="1060" height="744" rx="24" fill="#ffffff" stroke="#d4d9d0"/>
    <text x="32" y="54" font-family="Inter, Arial, sans-serif" font-size="29" font-weight="880" fill="#17202a">Current gate stack</text>
    <g transform="translate(34 96)">
    <rect width="992" height="92" rx="18" fill="#f8faf7" stroke="#d4d9d0"/>
    <circle cx="48" cy="46" r="22" fill="#1f6f68"/>
    <path d="M 38 46 L 45 54 L 60 36" fill="none" stroke="#ffffff" stroke-width="6" stroke-linecap="round" stroke-linejoin="round"/>
    <text x="88" y="38" font-family="Inter, Arial, sans-serif" font-size="22" font-weight="870" fill="#17202a">Catalog integrity</text>
    <text x="88" y="66" font-family="Inter, Arial, sans-serif" font-size="17" fill="#58615b">Workbook coverage, source statuses, artifact links</text>
    <rect x="832" y="27" width="126" height="38" rx="19" fill="#1f6f68"/>
    <text x="895" y="52" text-anchor="middle" font-family="Inter, Arial, sans-serif" font-size="16" font-weight="850" fill="#ffffff">PASS</text>
  </g><g transform="translate(34 220)">
    <rect width="992" height="92" rx="18" fill="#f8faf7" stroke="#d4d9d0"/>
    <circle cx="48" cy="46" r="22" fill="#1f6f68"/>
    <path d="M 38 46 L 45 54 L 60 36" fill="none" stroke="#ffffff" stroke-width="6" stroke-linecap="round" stroke-linejoin="round"/>
    <text x="88" y="38" font-family="Inter, Arial, sans-serif" font-size="22" font-weight="870" fill="#17202a">Currentness</text>
    <text x="88" y="66" font-family="Inter, Arial, sans-serif" font-size="17" fill="#58615b">Active, candidate, superseded, and blocked source roles</text>
    <rect x="832" y="27" width="126" height="38" rx="19" fill="#1f6f68"/>
    <text x="895" y="52" text-anchor="middle" font-family="Inter, Arial, sans-serif" font-size="16" font-weight="850" fill="#ffffff">PASS</text>
  </g><g transform="translate(34 344)">
    <rect width="992" height="92" rx="18" fill="#f8faf7" stroke="#d4d9d0"/>
    <circle cx="48" cy="46" r="22" fill="#1f6f68"/>
    <path d="M 38 46 L 45 54 L 60 36" fill="none" stroke="#ffffff" stroke-width="6" stroke-linecap="round" stroke-linejoin="round"/>
    <text x="88" y="38" font-family="Inter, Arial, sans-serif" font-size="22" font-weight="870" fill="#17202a">Graph validation</text>
    <text x="88" y="66" font-family="Inter, Arial, sans-serif" font-size="17" fill="#58615b">62/62 source-set checks</text>
    <rect x="832" y="27" width="126" height="38" rx="19" fill="#1f6f68"/>
    <text x="895" y="52" text-anchor="middle" font-family="Inter, Arial, sans-serif" font-size="16" font-weight="850" fill="#ffffff">PASS</text>
  </g><g transform="translate(34 468)">
    <rect width="992" height="92" rx="18" fill="#f8faf7" stroke="#d4d9d0"/>
    <circle cx="48" cy="46" r="22" fill="#1f6f68"/>
    <path d="M 38 46 L 45 54 L 60 36" fill="none" stroke="#ffffff" stroke-width="6" stroke-linecap="round" stroke-linejoin="round"/>
    <text x="88" y="38" font-family="Inter, Arial, sans-serif" font-size="22" font-weight="870" fill="#17202a">Phase evaluation</text>
    <text x="88" y="66" font-family="Inter, Arial, sans-serif" font-size="17" fill="#58615b">20/20 review phases</text>
    <rect x="832" y="27" width="126" height="38" rx="19" fill="#1f6f68"/>
    <text x="895" y="52" text-anchor="middle" font-family="Inter, Arial, sans-serif" font-size="16" font-weight="850" fill="#ffffff">PASS</text>
  </g><g transform="translate(34 592)">
    <rect width="992" height="92" rx="18" fill="#f8faf7" stroke="#d4d9d0"/>
    <circle cx="48" cy="46" r="22" fill="#1f6f68"/>
    <path d="M 38 46 L 45 54 L 60 36" fill="none" stroke="#ffffff" stroke-width="6" stroke-linecap="round" stroke-linejoin="round"/>
    <text x="88" y="38" font-family="Inter, Arial, sans-serif" font-size="22" font-weight="870" fill="#17202a">Promotion suite</text>
    <text x="88" y="66" font-family="Inter, Arial, sans-serif" font-size="17" fill="#58615b">26/26 current gates</text>
    <rect x="832" y="27" width="126" height="38" rx="19" fill="#1f6f68"/>
    <text x="895" y="52" text-anchor="middle" font-family="Inter, Arial, sans-serif" font-size="16" font-weight="850" fill="#ffffff">PASS</text>
  </g>
  </g>
  <g transform="translate(1190 224)" filter="url(#shadow)">
    <rect width="538" height="744" rx="24" fill="#ffffff" stroke="#d4d9d0"/>
    <text x="30" y="54" font-family="Inter, Arial, sans-serif" font-size="29" font-weight="880" fill="#17202a">Expansion boundary</text>
    <g transform="translate(30 104)">
    <rect width="478" height="110" rx="18" fill="#f8faf7" stroke="#d4d9d0"/>
    <text x="24" y="38" font-family="Inter, Arial, sans-serif" font-size="18" font-weight="850" fill="#17202a">Forest-plan profiles</text>
    <text x="24" y="78" font-family="Inter, Arial, sans-serif" font-size="36" font-weight="920" fill="#1f6f68">1/10</text>
    <text x="156" y="78" font-family="Inter, Arial, sans-serif" font-size="18" font-weight="760" fill="#58615b">graph-ready</text>
  </g>
    <g transform="translate(30 248)">
    <rect width="478" height="110" rx="18" fill="#f8faf7" stroke="#d4d9d0"/>
    <text x="24" y="38" font-family="Inter, Arial, sans-serif" font-size="18" font-weight="850" fill="#17202a">Blocked profiles</text>
    <text x="24" y="78" font-family="Inter, Arial, sans-serif" font-size="36" font-weight="920" fill="#1f6f68">9</text>
    <text x="156" y="78" font-family="Inter, Arial, sans-serif" font-size="18" font-weight="760" fill="#58615b">visible readiness blockers</text>
  </g>
    <g transform="translate(30 392)">
    <rect width="478" height="110" rx="18" fill="#f8faf7" stroke="#d4d9d0"/>
    <text x="24" y="38" font-family="Inter, Arial, sans-serif" font-size="18" font-weight="850" fill="#17202a">Components</text>
    <text x="24" y="78" font-family="Inter, Arial, sans-serif" font-size="36" font-weight="920" fill="#1f6f68">329</text>
    <text x="156" y="78" font-family="Inter, Arial, sans-serif" font-size="18" font-weight="760" fill="#58615b">inventory-backed</text>
  </g>
    <g transform="translate(30 536)">
    <rect width="478" height="110" rx="18" fill="#f8faf7" stroke="#d4d9d0"/>
    <text x="24" y="38" font-family="Inter, Arial, sans-serif" font-size="18" font-weight="850" fill="#17202a">Profile requirements</text>
    <text x="24" y="78" font-family="Inter, Arial, sans-serif" font-size="36" font-weight="920" fill="#1f6f68">8</text>
    <text x="156" y="78" font-family="Inter, Arial, sans-serif" font-size="18" font-weight="760" fill="#58615b">directives + overlays</text>
  </g>
  </g>
  <text x="92" y="1060" font-family="Inter, Arial, sans-serif" font-size="23" font-weight="850" fill="#1f6f68">Blocked or incomplete sources remain explicit so expansion risk is visible before a package is called ready.</text>
</svg>