<?xml version="1.0" encoding="UTF-8"?>
<svg xmlns="http://www.w3.org/2000/svg" width="1800" height="1120" viewBox="0 0 1800 1120" role="img" aria-label="Operating model from source library to review outputs">
  <defs>
    <filter id="shadow" x="-20%" y="-20%" width="140%" height="140%">
      <feDropShadow dx="0" dy="14" stdDeviation="14" flood-color="#17202a" flood-opacity="0.12"/>
    </filter>
    <marker id="arrow" viewBox="0 0 10 10" refX="9" refY="5" markerWidth="9" markerHeight="9" orient="auto-start-reverse">
      <path d="M 0 0 L 10 5 L 0 10 z" fill="#8b948d"/>
    </marker>
  </defs>
  <rect width="1800" height="1120" rx="34" fill="#f4f6f2"/>
  <text x="72" y="92" font-family="Inter, Arial, sans-serif" font-size="44" font-weight="880" fill="#17202a">Source-governed operating model</text>
  <text x="72" y="138" text-anchor="start" font-family="Inter, Arial, sans-serif" font-size="22" fill="#58615b">Each layer reads from a controlled surface and writes an auditable artifact. Generated products can be rebuilt without scanning raw</text><text x="72" y="165" text-anchor="start" font-family="Inter, Arial, sans-serif" font-size="22" fill="#58615b">filenames or collapsing provenance.</text>
  <g transform="translate(72 252)" filter="url(#shadow)">
    <rect width="292" height="540" rx="22" fill="#ffffff" stroke="#d4d9d0"/>
    <rect width="292" height="12" rx="6" fill="#17202a"/>
    <text x="24" y="62" text-anchor="start" font-family="Inter, Arial, sans-serif" font-size="28" font-weight="880" fill="#17202a">Input contract</text>
    <g transform="translate(24 178)">
        <rect width="244" height="78" rx="15" fill="#f8faf7" stroke="#d4d9d0"/>
        <circle cx="28" cy="39" r="10" fill="#17202a"/>
        <text x="52" y="46" text-anchor="start" font-family="Inter, Arial, sans-serif" font-size="19" fill="#435049">Workbook rows</text>
      </g><g transform="translate(24 286)">
        <rect width="244" height="78" rx="15" fill="#f8faf7" stroke="#d4d9d0"/>
        <circle cx="28" cy="39" r="10" fill="#17202a"/>
        <text x="52" y="46" text-anchor="start" font-family="Inter, Arial, sans-serif" font-size="19" fill="#435049">Scope and</text><text x="52" y="70" text-anchor="start" font-family="Inter, Arial, sans-serif" font-size="19" fill="#435049">exclusions</text>
      </g><g transform="translate(24 394)">
        <rect width="244" height="78" rx="15" fill="#f8faf7" stroke="#d4d9d0"/>
        <circle cx="28" cy="39" r="10" fill="#17202a"/>
        <text x="52" y="46" text-anchor="start" font-family="Inter, Arial, sans-serif" font-size="19" fill="#435049">URL overrides</text>
      </g>
  </g><g transform="translate(412 252)" filter="url(#shadow)">
    <rect width="292" height="540" rx="22" fill="#ffffff" stroke="#d4d9d0"/>
    <rect width="292" height="12" rx="6" fill="#1f6f68"/>
    <text x="24" y="62" text-anchor="start" font-family="Inter, Arial, sans-serif" font-size="28" font-weight="880" fill="#17202a">Source library</text>
    <g transform="translate(24 178)">
        <rect width="244" height="78" rx="15" fill="#f8faf7" stroke="#d4d9d0"/>
        <circle cx="28" cy="39" r="10" fill="#1f6f68"/>
        <text x="52" y="46" text-anchor="start" font-family="Inter, Arial, sans-serif" font-size="19" fill="#435049">Catalog and SQLite</text>
      </g><g transform="translate(24 286)">
        <rect width="244" height="78" rx="15" fill="#f8faf7" stroke="#d4d9d0"/>
        <circle cx="28" cy="39" r="10" fill="#1f6f68"/>
        <text x="52" y="46" text-anchor="start" font-family="Inter, Arial, sans-serif" font-size="19" fill="#435049">Manifests and</text><text x="52" y="70" text-anchor="start" font-family="Inter, Arial, sans-serif" font-size="19" fill="#435049">hashes</text>
      </g><g transform="translate(24 394)">
        <rect width="244" height="78" rx="15" fill="#f8faf7" stroke="#d4d9d0"/>
        <circle cx="28" cy="39" r="10" fill="#1f6f68"/>
        <text x="52" y="46" text-anchor="start" font-family="Inter, Arial, sans-serif" font-size="19" fill="#435049">Artifact</text><text x="52" y="70" text-anchor="start" font-family="Inter, Arial, sans-serif" font-size="19" fill="#435049">provenance</text>
      </g>
  </g><g transform="translate(752 252)" filter="url(#shadow)">
    <rect width="292" height="540" rx="22" fill="#ffffff" stroke="#d4d9d0"/>
    <rect width="292" height="12" rx="6" fill="#835b2f"/>
    <text x="24" y="62" text-anchor="start" font-family="Inter, Arial, sans-serif" font-size="28" font-weight="880" fill="#17202a">Derived evidence</text>
    <g transform="translate(24 178)">
        <rect width="244" height="78" rx="15" fill="#f8faf7" stroke="#d4d9d0"/>
        <circle cx="28" cy="39" r="10" fill="#835b2f"/>
        <text x="52" y="46" text-anchor="start" font-family="Inter, Arial, sans-serif" font-size="19" fill="#435049">Extraction spans</text>
      </g><g transform="translate(24 286)">
        <rect width="244" height="78" rx="15" fill="#f8faf7" stroke="#d4d9d0"/>
        <circle cx="28" cy="39" r="10" fill="#835b2f"/>
        <text x="52" y="46" text-anchor="start" font-family="Inter, Arial, sans-serif" font-size="19" fill="#435049">Retrieval index</text>
      </g><g transform="translate(24 394)">
        <rect width="244" height="78" rx="15" fill="#f8faf7" stroke="#d4d9d0"/>
        <circle cx="28" cy="39" r="10" fill="#835b2f"/>
        <text x="52" y="46" text-anchor="start" font-family="Inter, Arial, sans-serif" font-size="19" fill="#435049">Source claims</text>
      </g>
  </g><g transform="translate(1092 252)" filter="url(#shadow)">
    <rect width="292" height="540" rx="22" fill="#ffffff" stroke="#d4d9d0"/>
    <rect width="292" height="12" rx="6" fill="#6f4f86"/>
    <text x="24" y="62" text-anchor="start" font-family="Inter, Arial, sans-serif" font-size="28" font-weight="880" fill="#17202a">Authority logic</text>
    <g transform="translate(24 178)">
        <rect width="244" height="78" rx="15" fill="#f8faf7" stroke="#d4d9d0"/>
        <circle cx="28" cy="39" r="10" fill="#6f4f86"/>
        <text x="52" y="46" text-anchor="start" font-family="Inter, Arial, sans-serif" font-size="19" fill="#435049">Currentness</text>
      </g><g transform="translate(24 286)">
        <rect width="244" height="78" rx="15" fill="#f8faf7" stroke="#d4d9d0"/>
        <circle cx="28" cy="39" r="10" fill="#6f4f86"/>
        <text x="52" y="46" text-anchor="start" font-family="Inter, Arial, sans-serif" font-size="19" fill="#435049">Applicability</text>
      </g><g transform="translate(24 394)">
        <rect width="244" height="78" rx="15" fill="#f8faf7" stroke="#d4d9d0"/>
        <circle cx="28" cy="39" r="10" fill="#6f4f86"/>
        <text x="52" y="46" text-anchor="start" font-family="Inter, Arial, sans-serif" font-size="19" fill="#435049">Generated rules</text>
      </g>
  </g><g transform="translate(1432 252)" filter="url(#shadow)">
    <rect width="292" height="540" rx="22" fill="#ffffff" stroke="#d4d9d0"/>
    <rect width="292" height="12" rx="6" fill="#2e5e88"/>
    <text x="24" y="62" text-anchor="start" font-family="Inter, Arial, sans-serif" font-size="28" font-weight="880" fill="#17202a">Review surface</text>
    <g transform="translate(24 178)">
        <rect width="244" height="78" rx="15" fill="#f8faf7" stroke="#d4d9d0"/>
        <circle cx="28" cy="39" r="10" fill="#2e5e88"/>
        <text x="52" y="46" text-anchor="start" font-family="Inter, Arial, sans-serif" font-size="19" fill="#435049">Matrices and</text><text x="52" y="70" text-anchor="start" font-family="Inter, Arial, sans-serif" font-size="19" fill="#435049">reports</text>
      </g><g transform="translate(24 286)">
        <rect width="244" height="78" rx="15" fill="#f8faf7" stroke="#d4d9d0"/>
        <circle cx="28" cy="39" r="10" fill="#2e5e88"/>
        <text x="52" y="46" text-anchor="start" font-family="Inter, Arial, sans-serif" font-size="19" fill="#435049">Graph exports</text>
      </g><g transform="translate(24 394)">
        <rect width="244" height="78" rx="15" fill="#f8faf7" stroke="#d4d9d0"/>
        <circle cx="28" cy="39" r="10" fill="#2e5e88"/>
        <text x="52" y="46" text-anchor="start" font-family="Inter, Arial, sans-serif" font-size="19" fill="#435049">Promotion gates</text>
      </g>
  </g>
  <path d="M 364 520 L 402 520" stroke="#8b948d" stroke-width="6" stroke-linecap="round" marker-end="url(#arrow)"/>
  <path d="M 704 520 L 742 520" stroke="#8b948d" stroke-width="6" stroke-linecap="round" marker-end="url(#arrow)"/>
  <path d="M 1044 520 L 1082 520" stroke="#8b948d" stroke-width="6" stroke-linecap="round" marker-end="url(#arrow)"/>
  <path d="M 1384 520 L 1422 520" stroke="#8b948d" stroke-width="6" stroke-linecap="round" marker-end="url(#arrow)"/>
  <g transform="translate(72 868)" filter="url(#shadow)">
    <rect width="1656" height="176" rx="22" fill="#ffffff" stroke="#d4d9d0"/>
    <text x="32" y="48" font-family="Inter, Arial, sans-serif" font-size="28" font-weight="880" fill="#17202a">Current system signals</text>
    <g transform="translate(32 78)">
    <rect width="300" height="66" rx="33" fill="#f8faf7" stroke="#d4d9d0"/>
    <circle cx="36" cy="33" r="11" fill="#17202a"/>
    <text x="58" y="28" font-family="Inter, Arial, sans-serif" font-size="16" font-weight="850" fill="#17202a">Catalog</text>
    <text x="58" y="50" font-family="Inter, Arial, sans-serif" font-size="14" fill="#58615b">190 source records</text>
  </g>
    <g transform="translate(366 78)">
    <rect width="300" height="66" rx="33" fill="#f8faf7" stroke="#d4d9d0"/>
    <circle cx="36" cy="33" r="11" fill="#1f6f68"/>
    <text x="58" y="28" font-family="Inter, Arial, sans-serif" font-size="16" font-weight="850" fill="#17202a">Graph</text>
    <text x="58" y="50" font-family="Inter, Arial, sans-serif" font-size="14" fill="#58615b">1,410 nodes / 2,564 edges</text>
  </g>
    <g transform="translate(700 78)">
    <rect width="300" height="66" rx="33" fill="#f8faf7" stroke="#d4d9d0"/>
    <circle cx="36" cy="33" r="11" fill="#835b2f"/>
    <text x="58" y="28" font-family="Inter, Arial, sans-serif" font-size="16" font-weight="850" fill="#17202a">Authority</text>
    <text x="58" y="50" font-family="Inter, Arial, sans-serif" font-size="14" fill="#58615b">35 families / 19 templates</text>
  </g>
    <g transform="translate(1034 78)">
    <rect width="300" height="66" rx="33" fill="#f8faf7" stroke="#d4d9d0"/>
    <circle cx="36" cy="33" r="11" fill="#2e5e88"/>
    <text x="58" y="28" font-family="Inter, Arial, sans-serif" font-size="16" font-weight="850" fill="#17202a">Gates</text>
    <text x="58" y="50" font-family="Inter, Arial, sans-serif" font-size="14" fill="#58615b">26/26 current promotion</text>
  </g>
  </g>
</svg>