<?xml version="1.0" encoding="UTF-8"?>
<svg xmlns="http://www.w3.org/2000/svg" width="1800" height="1120" viewBox="0 0 1800 1120" role="img" aria-label="Operating model from source library to review outputs">
  <defs>
    <filter id="shadow" x="-20%" y="-20%" width="140%" height="140%">
      <feDropShadow dx="0" dy="14" stdDeviation="14" flood-color="#17202a" flood-opacity="0.12"/>
    </filter>
    <marker id="arrow" viewBox="0 0 10 10" refX="9" refY="5" markerWidth="9" markerHeight="9" orient="auto-start-reverse">
      <path d="M 0 0 L 10 5 L 0 10 z" fill="#8b948d"/>
    </marker>
  </defs>
  <rect width="1800" height="1120" rx="34" fill="#f4f6f2"/>
  <text x="72" y="92" font-family="Inter, Arial, sans-serif" font-size="44" font-weight="880" fill="#17202a">Source governance before analysis</text>
  <text x="72" y="138" text-anchor="start" font-family="Inter, Arial, sans-serif" font-size="22" fill="#58615b">Only cataloged, eligible, current sources can feed review logic. Blocked and superseded material stays visible without becoming</text><text x="72" y="165" text-anchor="start" font-family="Inter, Arial, sans-serif" font-size="22" fill="#58615b">controlling authority.</text>

  <g transform="translate(72 222)" filter="url(#shadow)">
    <rect width="470" height="188" rx="20" fill="#ffffff" stroke="#d4d9d0"/>
    <rect width="470" height="10" rx="5" fill="#17202a"/>
    <text x="28" y="54" font-family="Inter, Arial, sans-serif" font-size="25" font-weight="880" fill="#17202a">1. Workbook Contract</text>
    <g transform="translate(30 88)">
    <circle cx="8" cy="-6" r="7" fill="#17202a"/>
    <text x="26" y="0" font-family="Inter, Arial, sans-serif" font-size="18" font-weight="730" fill="#435049">Defines review universe</text>
  </g><g transform="translate(30 118)">
    <circle cx="8" cy="-6" r="7" fill="#17202a"/>
    <text x="26" y="0" font-family="Inter, Arial, sans-serif" font-size="18" font-weight="730" fill="#435049">Preserves row identity</text>
  </g><g transform="translate(30 148)">
    <circle cx="8" cy="-6" r="7" fill="#17202a"/>
    <text x="26" y="0" font-family="Inter, Arial, sans-serif" font-size="18" font-weight="730" fill="#435049">Applies scope and exclusions</text>
  </g>
  </g>
  <g transform="translate(665 222)" filter="url(#shadow)">
    <rect width="470" height="188" rx="20" fill="#ffffff" stroke="#d4d9d0"/>
    <rect width="470" height="10" rx="5" fill="#1f6f68"/>
    <text x="28" y="54" font-family="Inter, Arial, sans-serif" font-size="25" font-weight="880" fill="#17202a">2. Local Source Library</text>
    <g transform="translate(30 88)">
    <circle cx="8" cy="-6" r="7" fill="#1f6f68"/>
    <text x="26" y="0" font-family="Inter, Arial, sans-serif" font-size="18" font-weight="730" fill="#435049">Catalog, manifests, hashes</text>
  </g><g transform="translate(30 118)">
    <circle cx="8" cy="-6" r="7" fill="#1f6f68"/>
    <text x="26" y="0" font-family="Inter, Arial, sans-serif" font-size="18" font-weight="730" fill="#435049">Artifact provenance</text>
  </g><g transform="translate(30 148)">
    <circle cx="8" cy="-6" r="7" fill="#1f6f68"/>
    <text x="26" y="0" font-family="Inter, Arial, sans-serif" font-size="18" font-weight="730" fill="#435049">SQLite review index</text>
  </g>
  </g>
  <g transform="translate(1258 222)" filter="url(#shadow)">
    <rect width="470" height="188" rx="20" fill="#ffffff" stroke="#d4d9d0"/>
    <rect width="470" height="10" rx="5" fill="#835b2f"/>
    <text x="28" y="54" font-family="Inter, Arial, sans-serif" font-size="25" font-weight="880" fill="#17202a">3. Source Partitions</text>
    <g transform="translate(30 88)">
    <circle cx="8" cy="-6" r="7" fill="#835b2f"/>
    <text x="26" y="0" font-family="Inter, Arial, sans-serif" font-size="18" font-weight="730" fill="#435049">Active review corpus</text>
  </g><g transform="translate(30 118)">
    <circle cx="8" cy="-6" r="7" fill="#835b2f"/>
    <text x="26" y="0" font-family="Inter, Arial, sans-serif" font-size="18" font-weight="730" fill="#435049">Candidate or blocked sources</text>
  </g><g transform="translate(30 148)">
    <circle cx="8" cy="-6" r="7" fill="#835b2f"/>
    <text x="26" y="0" font-family="Inter, Arial, sans-serif" font-size="18" font-weight="730" fill="#435049">Currentness archive</text>
  </g>
  </g>
  <path d="M 542 316 L 655 316" stroke="#8b948d" stroke-width="6" stroke-linecap="round" marker-end="url(#arrow)"/>
  <path d="M 1135 316 L 1248 316" stroke="#8b948d" stroke-width="6" stroke-linecap="round" marker-end="url(#arrow)"/>

  <g transform="translate(72 500)" filter="url(#shadow)">
    <rect width="1656" height="186" rx="22" fill="#ffffff" stroke="#d4d9d0"/>
    <text x="32" y="48" font-family="Inter, Arial, sans-serif" font-size="27" font-weight="880" fill="#17202a">Partition rule</text>
    <g transform="translate(32 82)">
    <rect width="486" height="72" rx="18" fill="#f8faf7" stroke="#d4d9d0"/>
    <circle cx="30" cy="36" r="11" fill="#1f6f68"/>
    <text x="52" y="30" font-family="Inter, Arial, sans-serif" font-size="18" font-weight="850" fill="#17202a">Active review corpus</text>
    <text x="52" y="54" font-family="Inter, Arial, sans-serif" font-size="15" fill="#58615b">189 records may support review logic</text>
  </g>
    <g transform="translate(584 82)">
    <rect width="486" height="72" rx="18" fill="#f8faf7" stroke="#d4d9d0"/>
    <circle cx="30" cy="36" r="11" fill="#a65332"/>
    <text x="52" y="30" font-family="Inter, Arial, sans-serif" font-size="18" font-weight="850" fill="#17202a">Candidate / blocked</text>
    <text x="52" y="54" font-family="Inter, Arial, sans-serif" font-size="15" fill="#58615b">1 record visible as a blocker</text>
  </g>
    <g transform="translate(1136 82)">
    <rect width="486" height="72" rx="18" fill="#f8faf7" stroke="#d4d9d0"/>
    <circle cx="30" cy="36" r="11" fill="#68706a"/>
    <text x="52" y="30" font-family="Inter, Arial, sans-serif" font-size="18" font-weight="850" fill="#17202a">Superseded / currentness-only</text>
    <text x="52" y="54" font-family="Inter, Arial, sans-serif" font-size="15" fill="#58615b">visible for context, not active authority</text>
  </g>
  </g>

  <g transform="translate(72 760)" filter="url(#shadow)">
    <rect width="1656" height="230" rx="22" fill="#ffffff" stroke="#d4d9d0"/>
    <text x="32" y="50" font-family="Inter, Arial, sans-serif" font-size="27" font-weight="880" fill="#17202a">Derived after the source gate</text>
    <g transform="translate(34 92)">
    <rect width="284" height="98" rx="18" fill="#f8faf7" stroke="#d4d9d0"/>
    <rect width="284" height="8" rx="4" fill="#835b2f"/>
    <text x="24" y="42" font-family="Inter, Arial, sans-serif" font-size="21" font-weight="860" fill="#17202a">Extraction</text>
    <text x="24" y="70" text-anchor="start" font-family="Inter, Arial, sans-serif" font-size="15" fill="#58615b">source text and evidence spans</text>
  </g>
    <g transform="translate(420 92)">
    <rect width="284" height="98" rx="18" fill="#f8faf7" stroke="#d4d9d0"/>
    <rect width="284" height="8" rx="4" fill="#1f6f68"/>
    <text x="24" y="42" font-family="Inter, Arial, sans-serif" font-size="21" font-weight="860" fill="#17202a">Retrieval</text>
    <text x="24" y="70" text-anchor="start" font-family="Inter, Arial, sans-serif" font-size="15" fill="#58615b">indexed evidence for review</text>
  </g>
    <g transform="translate(806 92)">
    <rect width="284" height="98" rx="18" fill="#f8faf7" stroke="#d4d9d0"/>
    <rect width="284" height="8" rx="4" fill="#6f4f86"/>
    <text x="24" y="42" font-family="Inter, Arial, sans-serif" font-size="21" font-weight="860" fill="#17202a">Claims</text>
    <text x="24" y="70" text-anchor="start" font-family="Inter, Arial, sans-serif" font-size="15" fill="#58615b">source claims and rule support</text>
  </g>
    <g transform="translate(1192 92)">
    <rect width="284" height="98" rx="18" fill="#f8faf7" stroke="#d4d9d0"/>
    <rect width="284" height="8" rx="4" fill="#2e5e88"/>
    <text x="24" y="42" font-family="Inter, Arial, sans-serif" font-size="21" font-weight="860" fill="#17202a">Graph Export</text>
    <text x="24" y="70" text-anchor="start" font-family="Inter, Arial, sans-serif" font-size="15" fill="#58615b">validated nodes, edges, and</text><text x="24" y="90" text-anchor="start" font-family="Inter, Arial, sans-serif" font-size="15" fill="#58615b">reports</text>
  </g>
    <path d="M 316 152 L 410 152" stroke="#8b948d" stroke-width="6" stroke-linecap="round" marker-end="url(#arrow)"/>
    <path d="M 702 152 L 796 152" stroke="#8b948d" stroke-width="6" stroke-linecap="round" marker-end="url(#arrow)"/>
    <path d="M 1088 152 L 1182 152" stroke="#8b948d" stroke-width="6" stroke-linecap="round" marker-end="url(#arrow)"/>
  </g>
</svg>