<?xml version="1.0" encoding="UTF-8"?>
<svg xmlns="http://www.w3.org/2000/svg" width="1800" height="1120" viewBox="0 0 1800 1120" role="img" aria-label="Authority hierarchy graph from federal law to forest plans">
  <defs>
    <filter id="serviceShadow" x="-20%" y="-20%" width="140%" height="140%">
      <feDropShadow dx="0" dy="14" stdDeviation="14" flood-color="#141713" flood-opacity="0.13"/>
    </filter>
    <marker id="arrowService" viewBox="0 0 10 10" refX="9" refY="5" markerWidth="9" markerHeight="9" orient="auto-start-reverse">
      <path d="M 0 0 L 10 5 L 0 10 z" fill="#70726c"/>
    </marker>
  </defs>
  <rect width="1800" height="1120" rx="34" fill="#f8f7f1"/>
  <text x="72" y="94" font-family="Inter, Arial, sans-serif" font-size="44" font-weight="850" fill="#171713">Authority profile hierarchy</text>
  <text x="72" y="140" text-anchor="start" font-family="Inter, Arial, sans-serif" font-size="22" fill="#555b54">NEPA analysis is built as a hierarchy: federal law and regulation, department procedure, agency policy, regional direction, and</text><text x="72" y="167" text-anchor="start" font-family="Inter, Arial, sans-serif" font-size="22" fill="#555b54">forest-plan profiles at the edge of the graph.</text>

  <g transform="translate(60 232)" filter="url(#serviceShadow)">
    <rect width="300" height="660" rx="24" fill="#fefdf9" stroke="#d8d3c6"/>
    <rect width="300" height="14" rx="7" fill="#356a9b"/>
    <text x="24" y="66" font-family="Inter, Arial, sans-serif" font-size="37" font-weight="900" fill="#171713">Federal</text>
    <g transform="translate(24 150)">
    <rect width="252" height="96" rx="16" fill="#ffffff" stroke="#d8d3c6"/>
    <circle cx="27" cy="48" r="10" fill="#356a9b"/>
    <text x="49" y="41" text-anchor="start" font-family="Inter, Arial, sans-serif" font-size="26" fill="#171713">NEPA</text>
  </g><g transform="translate(24 288)">
    <rect width="252" height="96" rx="16" fill="#ffffff" stroke="#d8d3c6"/>
    <circle cx="27" cy="48" r="10" fill="#356a9b"/>
    <text x="49" y="41" text-anchor="start" font-family="Inter, Arial, sans-serif" font-size="26" fill="#171713">Other laws</text>
  </g><g transform="translate(24 426)">
    <rect width="252" height="96" rx="16" fill="#ffffff" stroke="#d8d3c6"/>
    <circle cx="27" cy="48" r="10" fill="#356a9b"/>
    <text x="49" y="41" text-anchor="start" font-family="Inter, Arial, sans-serif" font-size="26" fill="#171713">Regulations /</text><text x="49" y="72" text-anchor="start" font-family="Inter, Arial, sans-serif" font-size="26" fill="#171713">orders</text>
  </g>
  </g>
  <g transform="translate(382 232)" filter="url(#serviceShadow)">
    <rect width="300" height="660" rx="24" fill="#fefdf9" stroke="#d8d3c6"/>
    <rect width="300" height="14" rx="7" fill="#26786f"/>
    <text x="24" y="66" font-family="Inter, Arial, sans-serif" font-size="37" font-weight="900" fill="#171713">Department</text>
    <g transform="translate(24 150)">
    <rect width="252" height="96" rx="16" fill="#ffffff" stroke="#d8d3c6"/>
    <circle cx="27" cy="48" r="10" fill="#26786f"/>
    <text x="49" y="41" text-anchor="start" font-family="Inter, Arial, sans-serif" font-size="26" fill="#171713">USDA</text><text x="49" y="72" text-anchor="start" font-family="Inter, Arial, sans-serif" font-size="26" fill="#171713">procedures</text>
  </g><g transform="translate(24 288)">
    <rect width="252" height="96" rx="16" fill="#ffffff" stroke="#d8d3c6"/>
    <circle cx="27" cy="48" r="10" fill="#26786f"/>
    <text x="49" y="41" text-anchor="start" font-family="Inter, Arial, sans-serif" font-size="26" fill="#171713">Department</text><text x="49" y="72" text-anchor="start" font-family="Inter, Arial, sans-serif" font-size="26" fill="#171713">rules</text>
  </g><g transform="translate(24 426)">
    <rect width="252" height="96" rx="16" fill="#ffffff" stroke="#d8d3c6"/>
    <circle cx="27" cy="48" r="10" fill="#26786f"/>
    <text x="49" y="41" text-anchor="start" font-family="Inter, Arial, sans-serif" font-size="26" fill="#171713">Current</text><text x="49" y="72" text-anchor="start" font-family="Inter, Arial, sans-serif" font-size="26" fill="#171713">authority</text>
  </g>
  </g>
  <g transform="translate(704 232)" filter="url(#serviceShadow)">
    <rect width="300" height="660" rx="24" fill="#fefdf9" stroke="#d8d3c6"/>
    <rect width="300" height="14" rx="7" fill="#7a6e3d"/>
    <text x="24" y="66" font-family="Inter, Arial, sans-serif" font-size="37" font-weight="900" fill="#171713">Agency</text>
    <g transform="translate(24 150)">
    <rect width="252" height="96" rx="16" fill="#ffffff" stroke="#d8d3c6"/>
    <circle cx="27" cy="48" r="10" fill="#7a6e3d"/>
    <text x="49" y="41" text-anchor="start" font-family="Inter, Arial, sans-serif" font-size="26" fill="#171713">Forest Service</text><text x="49" y="72" text-anchor="start" font-family="Inter, Arial, sans-serif" font-size="26" fill="#171713">policy</text>
  </g><g transform="translate(24 288)">
    <rect width="252" height="96" rx="16" fill="#ffffff" stroke="#d8d3c6"/>
    <circle cx="27" cy="48" r="10" fill="#7a6e3d"/>
    <text x="49" y="41" text-anchor="start" font-family="Inter, Arial, sans-serif" font-size="26" fill="#171713">Handbooks /</text><text x="49" y="72" text-anchor="start" font-family="Inter, Arial, sans-serif" font-size="26" fill="#171713">manuals</text>
  </g><g transform="translate(24 426)">
    <rect width="252" height="96" rx="16" fill="#ffffff" stroke="#d8d3c6"/>
    <circle cx="27" cy="48" r="10" fill="#7a6e3d"/>
    <text x="49" y="41" text-anchor="start" font-family="Inter, Arial, sans-serif" font-size="26" fill="#171713">Agency</text><text x="49" y="72" text-anchor="start" font-family="Inter, Arial, sans-serif" font-size="26" fill="#171713">guidance</text>
  </g>
  </g>
  <g transform="translate(1026 232)" filter="url(#serviceShadow)">
    <rect width="300" height="660" rx="24" fill="#fefdf9" stroke="#d8d3c6"/>
    <rect width="300" height="14" rx="7" fill="#a75a22"/>
    <text x="24" y="66" font-family="Inter, Arial, sans-serif" font-size="37" font-weight="900" fill="#171713">Region</text>
    <g transform="translate(24 150)">
    <rect width="252" height="96" rx="16" fill="#ffffff" stroke="#d8d3c6"/>
    <circle cx="27" cy="48" r="10" fill="#a75a22"/>
    <text x="49" y="41" text-anchor="start" font-family="Inter, Arial, sans-serif" font-size="26" fill="#171713">Region 1</text><text x="49" y="72" text-anchor="start" font-family="Inter, Arial, sans-serif" font-size="26" fill="#171713">directives</text>
  </g><g transform="translate(24 288)">
    <rect width="252" height="96" rx="16" fill="#ffffff" stroke="#d8d3c6"/>
    <circle cx="27" cy="48" r="10" fill="#a75a22"/>
    <text x="49" y="41" text-anchor="start" font-family="Inter, Arial, sans-serif" font-size="26" fill="#171713">Overlay</text><text x="49" y="72" text-anchor="start" font-family="Inter, Arial, sans-serif" font-size="26" fill="#171713">requirements</text>
  </g><g transform="translate(24 426)">
    <rect width="252" height="96" rx="16" fill="#ffffff" stroke="#d8d3c6"/>
    <circle cx="27" cy="48" r="10" fill="#a75a22"/>
    <text x="49" y="41" text-anchor="start" font-family="Inter, Arial, sans-serif" font-size="26" fill="#171713">Validation</text><text x="49" y="72" text-anchor="start" font-family="Inter, Arial, sans-serif" font-size="26" fill="#171713">gates</text>
  </g>
  </g>

  <path d="M 360 562 L 382 562" stroke="#8a8f84" stroke-width="7" stroke-linecap="round" stroke-opacity="0.58" marker-end="url(#arrowService)"/>
  <path d="M 682 562 L 704 562" stroke="#8a8f84" stroke-width="7" stroke-linecap="round" stroke-opacity="0.58" marker-end="url(#arrowService)"/>
  <path d="M 1004 562 L 1026 562" stroke="#8a8f84" stroke-width="7" stroke-linecap="round" stroke-opacity="0.58" marker-end="url(#arrowService)"/>
  <path d="M 1326 562 L 1378 609" stroke="#8a8f84" stroke-width="7" stroke-linecap="round" stroke-opacity="0.58" marker-end="url(#arrowService)"/>

  <g transform="translate(1378 184)" filter="url(#serviceShadow)">
    <rect width="360" height="850" rx="26" fill="#fefdf9" stroke="#d8d3c6"/>
    <rect width="360" height="14" rx="7" fill="#5c6f8c"/>
    <text x="26" y="54" font-family="Inter, Arial, sans-serif" font-size="33" font-weight="900" fill="#171713">Forest</text>
    <text x="26" y="84" font-family="Inter, Arial, sans-serif" font-size="18" font-weight="800" fill="#5f625b">10 Region 1 forest-plan profiles</text>
    <g transform="translate(26 112)">
    <rect width="308" height="62" rx="15" fill="#ffffff" stroke="#5c6f8c" stroke-width="3"/>
    <circle cx="24" cy="31" r="9" fill="#5c6f8c"/>
    <text x="44" y="30" text-anchor="start" font-family="Inter, Arial, sans-serif" font-size="21" fill="#171713">Beaverhead-Deerlodge</text>
  </g><g transform="translate(26 182)">
    <rect width="308" height="62" rx="15" fill="#ffffff" stroke="#5c6f8c" stroke-width="3"/>
    <circle cx="24" cy="31" r="9" fill="#5c6f8c"/>
    <text x="44" y="30" text-anchor="start" font-family="Inter, Arial, sans-serif" font-size="21" fill="#171713">Bitterroot</text>
  </g><g transform="translate(26 252)">
    <rect width="308" height="62" rx="15" fill="#ffffff" stroke="#5c6f8c" stroke-width="3"/>
    <circle cx="24" cy="31" r="9" fill="#5c6f8c"/>
    <text x="44" y="30" text-anchor="start" font-family="Inter, Arial, sans-serif" font-size="21" fill="#171713">Custer Gallatin</text>
  </g><g transform="translate(26 322)">
    <rect width="308" height="62" rx="15" fill="#ffffff" stroke="#5c6f8c" stroke-width="3"/>
    <circle cx="24" cy="31" r="9" fill="#5c6f8c"/>
    <text x="44" y="30" text-anchor="start" font-family="Inter, Arial, sans-serif" font-size="21" fill="#171713">Dakota Prairie</text><text x="44" y="56" text-anchor="start" font-family="Inter, Arial, sans-serif" font-size="21" fill="#171713">Grasslands</text>
  </g><g transform="translate(26 392)">
    <rect width="308" height="62" rx="15" fill="#ffffff" stroke="#5c6f8c" stroke-width="3"/>
    <circle cx="24" cy="31" r="9" fill="#5c6f8c"/>
    <text x="44" y="30" text-anchor="start" font-family="Inter, Arial, sans-serif" font-size="21" fill="#171713">Flathead</text>
  </g><g transform="translate(26 462)">
    <rect width="308" height="62" rx="15" fill="#ffffff" stroke="#5c6f8c" stroke-width="3"/>
    <circle cx="24" cy="31" r="9" fill="#5c6f8c"/>
    <text x="44" y="30" text-anchor="start" font-family="Inter, Arial, sans-serif" font-size="21" fill="#171713">Helena-Lewis Clark</text>
  </g><g transform="translate(26 532)">
    <rect width="308" height="62" rx="15" fill="#ffffff" stroke="#5c6f8c" stroke-width="3"/>
    <circle cx="24" cy="31" r="9" fill="#5c6f8c"/>
    <text x="44" y="30" text-anchor="start" font-family="Inter, Arial, sans-serif" font-size="21" fill="#171713">Idaho Panhandle</text>
  </g><g transform="translate(26 602)">
    <rect width="308" height="62" rx="15" fill="#ffffff" stroke="#5c6f8c" stroke-width="3"/>
    <circle cx="24" cy="31" r="9" fill="#5c6f8c"/>
    <text x="44" y="30" text-anchor="start" font-family="Inter, Arial, sans-serif" font-size="21" fill="#171713">Kootenai</text>
  </g><g transform="translate(26 672)">
    <rect width="308" height="62" rx="15" fill="#ffffff" stroke="#5c6f8c" stroke-width="3"/>
    <circle cx="24" cy="31" r="9" fill="#5c6f8c"/>
    <text x="44" y="30" text-anchor="start" font-family="Inter, Arial, sans-serif" font-size="21" fill="#171713">Lolo</text>
  </g><g transform="translate(26 742)">
    <rect width="308" height="62" rx="15" fill="#ffffff" stroke="#5c6f8c" stroke-width="3"/>
    <circle cx="24" cy="31" r="9" fill="#5c6f8c"/>
    <text x="44" y="30" text-anchor="start" font-family="Inter, Arial, sans-serif" font-size="21" fill="#171713">Nez Perce-Clearwater</text>
  </g>
  </g>

  <text x="92" y="1015" font-family="Inter, Arial, sans-serif" font-size="21" font-weight="850" fill="#26786f">Decision risk is checked across the whole authority stack, not only against a single NEPA citation.</text>
  <text x="92" y="1046" font-family="Inter, Arial, sans-serif" font-size="19" fill="#5f625b">Region 1 is the operational proof; new systems expand by adding source/profile coverage and replaying validation gates.</text>
</svg>