<?xml version="1.0" encoding="UTF-8"?>
<svg xmlns="http://www.w3.org/2000/svg" width="1800" height="1180" viewBox="0 0 1800 1180" role="img" aria-label="Readiness gates and expansion boundary for the NEPA review system">
  <defs>
    <filter id="shadow" x="-20%" y="-20%" width="140%" height="140%">
      <feDropShadow dx="0" dy="14" stdDeviation="14" flood-color="#17202a" flood-opacity="0.12"/>
    </filter>
    <marker id="arrow" viewBox="0 0 10 10" refX="9" refY="5" markerWidth="9" markerHeight="9" orient="auto-start-reverse">
      <path d="M 0 0 L 10 5 L 0 10 z" fill="#8b948d"/>
    </marker>
  </defs>
  <rect width="1800" height="1180" rx="34" fill="#f4f6f2"/>
  <text x="72" y="92" font-family="Inter, Arial, sans-serif" font-size="44" font-weight="880" fill="#17202a">Readiness gate stack</text>
  <text x="72" y="138" text-anchor="start" font-family="Inter, Arial, sans-serif" font-size="22" fill="#58615b">Readiness is an artifact state. The system must prove source, evidence, graph, review, QA, and promotion gates before outputs are</text><text x="72" y="165" text-anchor="start" font-family="Inter, Arial, sans-serif" font-size="22" fill="#58615b">treated as ready.</text>
  <g transform="translate(72 224)" filter="url(#shadow)">
    <rect width="1018" height="790" rx="24" fill="#ffffff" stroke="#d4d9d0"/>
    <text x="32" y="54" font-family="Inter, Arial, sans-serif" font-size="29" font-weight="880" fill="#17202a">Current readiness gates</text>
    <g transform="translate(34 94)">
    <rect width="920" height="78" rx="18" fill="#f8faf7" stroke="#d4d9d0"/>
    <circle cx="48" cy="46" r="22" fill="#1f6f68"/>
    <path d="M 38 46 L 45 54 L 60 36" fill="none" stroke="#ffffff" stroke-width="6" stroke-linecap="round" stroke-linejoin="round"/>
    <text x="88" y="38" font-family="Inter, Arial, sans-serif" font-size="22" font-weight="870" fill="#17202a">Source capture</text>
    <text x="88" y="66" font-family="Inter, Arial, sans-serif" font-size="17" fill="#58615b">catalog and artifact links complete</text>
    <rect x="760" y="20" width="126" height="38" rx="19" fill="#1f6f68"/>
    <text x="823" y="45" text-anchor="middle" font-family="Inter, Arial, sans-serif" font-size="16" font-weight="850" fill="#ffffff">PASS</text>
  </g><g transform="translate(34 198)">
    <rect width="920" height="78" rx="18" fill="#f8faf7" stroke="#d4d9d0"/>
    <circle cx="48" cy="46" r="22" fill="#1f6f68"/>
    <path d="M 38 46 L 45 54 L 60 36" fill="none" stroke="#ffffff" stroke-width="6" stroke-linecap="round" stroke-linejoin="round"/>
    <text x="88" y="38" font-family="Inter, Arial, sans-serif" font-size="22" font-weight="870" fill="#17202a">Currentness</text>
    <text x="88" y="66" font-family="Inter, Arial, sans-serif" font-size="17" fill="#58615b">active, blocked, and superseded roles checked</text>
    <rect x="760" y="20" width="126" height="38" rx="19" fill="#1f6f68"/>
    <text x="823" y="45" text-anchor="middle" font-family="Inter, Arial, sans-serif" font-size="16" font-weight="850" fill="#ffffff">PASS</text>
  </g><g transform="translate(34 302)">
    <rect width="920" height="78" rx="18" fill="#f8faf7" stroke="#d4d9d0"/>
    <circle cx="48" cy="46" r="22" fill="#1f6f68"/>
    <path d="M 38 46 L 45 54 L 60 36" fill="none" stroke="#ffffff" stroke-width="6" stroke-linecap="round" stroke-linejoin="round"/>
    <text x="88" y="38" font-family="Inter, Arial, sans-serif" font-size="22" font-weight="870" fill="#17202a">Evidence build</text>
    <text x="88" y="66" font-family="Inter, Arial, sans-serif" font-size="17" fill="#58615b">extraction, retrieval, claims, and graph inputs rebuilt</text>
    <rect x="760" y="20" width="126" height="38" rx="19" fill="#1f6f68"/>
    <text x="823" y="45" text-anchor="middle" font-family="Inter, Arial, sans-serif" font-size="16" font-weight="850" fill="#ffffff">PASS</text>
  </g><g transform="translate(34 406)">
    <rect width="920" height="78" rx="18" fill="#f8faf7" stroke="#d4d9d0"/>
    <circle cx="48" cy="46" r="22" fill="#1f6f68"/>
    <path d="M 38 46 L 45 54 L 60 36" fill="none" stroke="#ffffff" stroke-width="6" stroke-linecap="round" stroke-linejoin="round"/>
    <text x="88" y="38" font-family="Inter, Arial, sans-serif" font-size="22" font-weight="870" fill="#17202a">Graph validation</text>
    <text x="88" y="66" font-family="Inter, Arial, sans-serif" font-size="17" fill="#58615b">schema, provenance, endpoints, and summaries valid</text>
    <rect x="760" y="20" width="126" height="38" rx="19" fill="#1f6f68"/>
    <text x="823" y="45" text-anchor="middle" font-family="Inter, Arial, sans-serif" font-size="16" font-weight="850" fill="#ffffff">PASS</text>
  </g><g transform="translate(34 510)">
    <rect width="920" height="78" rx="18" fill="#f8faf7" stroke="#d4d9d0"/>
    <circle cx="48" cy="46" r="22" fill="#1f6f68"/>
    <path d="M 38 46 L 45 54 L 60 36" fill="none" stroke="#ffffff" stroke-width="6" stroke-linecap="round" stroke-linejoin="round"/>
    <text x="88" y="38" font-family="Inter, Arial, sans-serif" font-size="22" font-weight="870" fill="#17202a">Review outputs</text>
    <text x="88" y="66" font-family="Inter, Arial, sans-serif" font-size="17" fill="#58615b">matrix, decision support, final QA, and PDF artifacts valid</text>
    <rect x="760" y="20" width="126" height="38" rx="19" fill="#1f6f68"/>
    <text x="823" y="45" text-anchor="middle" font-family="Inter, Arial, sans-serif" font-size="16" font-weight="850" fill="#ffffff">PASS</text>
  </g><g transform="translate(34 614)">
    <rect width="920" height="78" rx="18" fill="#f8faf7" stroke="#d4d9d0"/>
    <circle cx="48" cy="46" r="22" fill="#1f6f68"/>
    <path d="M 38 46 L 45 54 L 60 36" fill="none" stroke="#ffffff" stroke-width="6" stroke-linecap="round" stroke-linejoin="round"/>
    <text x="88" y="38" font-family="Inter, Arial, sans-serif" font-size="22" font-weight="870" fill="#17202a">Promotion</text>
    <text x="88" y="66" font-family="Inter, Arial, sans-serif" font-size="17" fill="#58615b">current gate suite ready</text>
    <rect x="760" y="20" width="126" height="38" rx="19" fill="#1f6f68"/>
    <text x="823" y="45" text-anchor="middle" font-family="Inter, Arial, sans-serif" font-size="16" font-weight="850" fill="#ffffff">PASS</text>
  </g>
  </g>
  <g transform="translate(1160 224)" filter="url(#shadow)">
    <rect width="568" height="790" rx="24" fill="#ffffff" stroke="#d4d9d0"/>
    <text x="30" y="54" font-family="Inter, Arial, sans-serif" font-size="29" font-weight="880" fill="#17202a">Expansion blockers stay typed</text>
    <g transform="translate(30 104)">
    <rect width="508" height="112" rx="18" fill="#f8faf7" stroke="#d4d9d0"/>
    <text x="24" y="36" font-family="Inter, Arial, sans-serif" font-size="19" font-weight="850" fill="#17202a">Forest profile not ready</text>
    <text x="24" y="78" font-family="Inter, Arial, sans-serif" font-size="34" font-weight="920" fill="#a65332">62</text>
    <text x="108" y="78" font-family="Inter, Arial, sans-serif" font-size="17" fill="#58615b">profile coverage not complete</text>
  </g>
    <g transform="translate(30 252)">
    <rect width="508" height="112" rx="18" fill="#f8faf7" stroke="#d4d9d0"/>
    <text x="24" y="36" font-family="Inter, Arial, sans-serif" font-size="19" font-weight="850" fill="#17202a">Missing source</text>
    <text x="24" y="78" font-family="Inter, Arial, sans-serif" font-size="34" font-weight="920" fill="#835b2f">33</text>
    <text x="108" y="78" font-family="Inter, Arial, sans-serif" font-size="17" fill="#58615b">required source absent or unresolved</text>
  </g>
    <g transform="translate(30 400)">
    <rect width="508" height="112" rx="18" fill="#f8faf7" stroke="#d4d9d0"/>
    <text x="24" y="36" font-family="Inter, Arial, sans-serif" font-size="19" font-weight="850" fill="#17202a">Superseded source</text>
    <text x="24" y="78" font-family="Inter, Arial, sans-serif" font-size="34" font-weight="920" fill="#68706a">3</text>
    <text x="108" y="78" font-family="Inter, Arial, sans-serif" font-size="17" fill="#58615b">visible for currentness only</text>
  </g>
    <g transform="translate(30 548)">
    <rect width="508" height="112" rx="18" fill="#f8faf7" stroke="#d4d9d0"/>
    <text x="24" y="36" font-family="Inter, Arial, sans-serif" font-size="19" font-weight="850" fill="#17202a">Chapter delta</text>
    <text x="24" y="78" font-family="Inter, Arial, sans-serif" font-size="34" font-weight="920" fill="#6f4f86">2</text>
    <text x="108" y="78" font-family="Inter, Arial, sans-serif" font-size="17" fill="#58615b">handbook chapter split required</text>
  </g>
    <text x="30" y="728" font-family="Inter, Arial, sans-serif" font-size="18" font-weight="850" fill="#1f6f68">1/10 tracked forest-plan profiles are graph-ready.</text>
  </g>
</svg>