<svg xmlns="http://www.w3.org/2000/svg" width="1120" height="430" viewBox="0 0 1120 430">
  <style>
    .eyebrow { font: 800 20px Inter, Arial, sans-serif; fill: #26786f; letter-spacing: 1.5px; text-transform: uppercase; }
    .title { font: 800 22px Inter, Arial, sans-serif; fill: #171713; }
    .scope-title { font: 800 16px Inter, Arial, sans-serif; fill: #171713; }
    .muted { font: 700 15px Inter, Arial, sans-serif; fill: #5f625b; }
    .tiny { font: 700 12px Inter, Arial, sans-serif; fill: #5f625b; }
    .small-label { font: 800 14px Inter, Arial, sans-serif; fill: #26786f; letter-spacing: 1px; text-transform: uppercase; }
  </style>
  <rect width="1120" height="430" fill="#ffffff"/>
  <rect x="24" y="24" width="1072" height="382" rx="24" fill="#f7f6f1" stroke="#d8d3c6" stroke-width="2"/>
  <g><text x="70" y="42" class="eyebrow">Intake evidence graph</text>
     <path d="M246 125 C288 125 288 89 330 89" fill="none" stroke="#26786f" stroke-width="4" stroke-linecap="round" opacity="0.72"/>
    <path d="M330 89 l-11 -8 v16 z" fill="#26786f" opacity="0.72"/><path d="M246 245 C288 245 288 203 330 203" fill="none" stroke="#26786f" stroke-width="4" stroke-linecap="round" opacity="0.72"/>
    <path d="M330 203 l-11 -8 v16 z" fill="#26786f" opacity="0.72"/><path d="M508 89 C549 89 549 115 590 115" fill="none" stroke="#26786f" stroke-width="4" stroke-linecap="round" opacity="0.72"/>
    <path d="M590 115 l-11 -8 v16 z" fill="#26786f" opacity="0.72"/><path d="M508 203 C549 203 549 115 590 115" fill="none" stroke="#26786f" stroke-width="4" stroke-linecap="round" opacity="0.72"/>
    <path d="M590 115 l-11 -8 v16 z" fill="#26786f" opacity="0.72"/><path d="M508 317 C549 317 549 255 590 255" fill="none" stroke="#26786f" stroke-width="4" stroke-linecap="round" opacity="0.72"/>
    <path d="M590 255 l-11 -8 v16 z" fill="#26786f" opacity="0.72"/><path d="M780 115 C821 115 821 115 862 115" fill="none" stroke="#26786f" stroke-width="4" stroke-linecap="round" opacity="0.72"/>
    <path d="M862 115 l-11 -8 v16 z" fill="#26786f" opacity="0.72"/><path d="M780 255 C821 255 821 255 862 255" fill="none" stroke="#26786f" stroke-width="4" stroke-linecap="round" opacity="0.72"/>
    <path d="M862 255 l-11 -8 v16 z" fill="#26786f" opacity="0.72"/><path d="M690 150 C690 150 690 220 690 220" fill="none" stroke="#26786f" stroke-width="4" stroke-linecap="round" opacity="0.72"/>
    <path d="M690 220 l-11 -8 v16 z" fill="#26786f" opacity="0.72"/>
     <rect x="70" y="92" width="176" height="66" rx="14" fill="#ffffff" stroke="#d8d3c6" stroke-width="2"/>
    <rect x="70" y="92" width="8" height="66" rx="4" fill="#26786f"/>
    <text x="90" y="120" class="scope-title">Project profile</text>
    <text x="90" y="142" class="tiny">Forest / district</text><rect x="70" y="212" width="176" height="66" rx="14" fill="#ffffff" stroke="#d8d3c6" stroke-width="2"/>
    <rect x="70" y="212" width="8" height="66" rx="4" fill="#26786f"/>
    <text x="90" y="240" class="scope-title">Proposed action</text>
    <text x="90" y="262" class="tiny">23 resource areas</text><rect x="330" y="58" width="178" height="62" rx="14" fill="#ffffff" stroke="#d8d3c6" stroke-width="2"/>
    <rect x="330" y="58" width="8" height="62" rx="4" fill="#26786f"/>
    <text x="350" y="86" class="scope-title">Action elements</text>
    <text x="350" y="108" class="tiny">115 graph nodes</text><rect x="330" y="172" width="178" height="62" rx="14" fill="#ffffff" stroke="#d8d3c6" stroke-width="2"/>
    <rect x="330" y="172" width="8" height="62" rx="4" fill="#26786f"/>
    <text x="350" y="200" class="scope-title">Evidence refs</text>
    <text x="350" y="222" class="tiny">134 graph edges</text><rect x="330" y="286" width="178" height="62" rx="14" fill="#ffffff" stroke="#d8d3c6" stroke-width="2"/>
    <rect x="330" y="286" width="8" height="62" rx="4" fill="#26786f"/>
    <text x="350" y="314" class="scope-title">Reference reports</text>
    <text x="350" y="336" class="tiny">13 comparison inputs</text><rect x="590" y="80" width="190" height="70" rx="14" fill="#ffffff" stroke="#d8d3c6" stroke-width="2"/>
    <rect x="590" y="80" width="8" height="70" rx="4" fill="#26786f"/>
    <text x="610" y="108" class="scope-title">Resource areas</text>
    <text x="610" y="130" class="tiny">23 proposed-action areas</text><rect x="590" y="220" width="190" height="70" rx="14" fill="#ffffff" stroke="#d8d3c6" stroke-width="2"/>
    <rect x="590" y="220" width="8" height="70" rx="4" fill="#26786f"/>
    <text x="610" y="248" class="scope-title">Resource scopes</text>
    <text x="610" y="270" class="tiny">10 selected scopes</text><rect x="862" y="80" width="188" height="70" rx="14" fill="#ffffff" stroke="#d8d3c6" stroke-width="2"/>
    <rect x="862" y="80" width="8" height="70" rx="4" fill="#26786f"/>
    <text x="882" y="108" class="scope-title">Required deliverables</text>
    <text x="882" y="130" class="tiny">10 scope records</text><rect x="862" y="220" width="188" height="70" rx="14" fill="#ffffff" stroke="#d8d3c6" stroke-width="2"/>
    <rect x="862" y="220" width="8" height="70" rx="4" fill="#26786f"/>
    <text x="882" y="248" class="scope-title">Package outputs</text>
    <text x="882" y="270" class="tiny">JSON / Markdown / PDF</text>
     <rect x="70" y="365" width="980" height="42" rx="14" fill="#f7f6f1" stroke="#d8d3c6" stroke-width="2"/>
     <text x="92" y="392" class="muted">Canonical path: proposed action -> action element -> evidence ref -> resource area -> resource scope.</text></g>
</svg>