<svg xmlns="http://www.w3.org/2000/svg" width="1120" height="430" viewBox="0 0 1120 430">
  <defs>
    <filter id="shadow" x="-20%" y="-20%" width="140%" height="140%">
      <feDropShadow dx="0" dy="10" stdDeviation="10" flood-color="#181c1a" flood-opacity="0.12"/>
    </filter>
  </defs>
  <style>
    .eyebrow { font: 800 20px Inter, Arial, sans-serif; fill: #26786f; letter-spacing: 1.5px; text-transform: uppercase; }
    .title { font: 800 22px Inter, Arial, sans-serif; fill: #171713; }
    .scope-title { font: 800 16px Inter, Arial, sans-serif; fill: #171713; }
    .muted { font: 700 15px Inter, Arial, sans-serif; fill: #5f625b; }
    .tiny { font: 700 12px Inter, Arial, sans-serif; fill: #5f625b; }
    .small-label { font: 800 14px Inter, Arial, sans-serif; fill: #26786f; letter-spacing: 1px; text-transform: uppercase; }
  </style>
  <rect width="1120" height="430" fill="#ffffff"/>
  <rect x="24" y="24" width="1072" height="382" rx="24" fill="#f7f6f1" stroke="#d8d3c6" stroke-width="2"/>
  <g filter="url(#shadow)"><text x="70" y="42" class="eyebrow">Operational gate and handoff</text>
     <rect x="72" y="72" width="220" height="92" rx="14" fill="#ffffff" stroke="#d8d3c6" stroke-width="2"/>
        <circle cx="100" cy="104" r="13" fill="#26786f"/>
        <path d="M92 104 l6 7 l12 -16" fill="none" stroke="#fff" stroke-width="4" stroke-linecap="round" stroke-linejoin="round"/>
        <text x="122" y="103" class="scope-title">No-write intake validation</text>
        <text x="122" y="128" class="muted">4 validation targets</text><rect x="330" y="72" width="220" height="92" rx="14" fill="#ffffff" stroke="#d8d3c6" stroke-width="2"/>
        <circle cx="358" cy="104" r="13" fill="#26786f"/>
        <path d="M350 104 l6 7 l12 -16" fill="none" stroke="#fff" stroke-width="4" stroke-linecap="round" stroke-linejoin="round"/>
        <text x="380" y="103" class="scope-title">Proving-intake eval</text>
        <text x="380" y="128" class="muted">3 cases / 0 failed</text><rect x="588" y="72" width="220" height="92" rx="14" fill="#ffffff" stroke="#d8d3c6" stroke-width="2"/>
        <circle cx="616" cy="104" r="13" fill="#26786f"/>
        <path d="M608 104 l6 7 l12 -16" fill="none" stroke="#fff" stroke-width="4" stroke-linecap="round" stroke-linejoin="round"/>
        <text x="638" y="103" class="scope-title">Rendering smoke</text>
        <text x="638" y="128" class="muted">JSON, Markdown, PDF</text><rect x="846" y="72" width="220" height="92" rx="14" fill="#ffffff" stroke="#d8d3c6" stroke-width="2"/>
        <circle cx="874" cy="104" r="13" fill="#26786f"/>
        <path d="M866 104 l6 7 l12 -16" fill="none" stroke="#fff" stroke-width="4" stroke-linecap="round" stroke-linejoin="round"/>
        <text x="896" y="103" class="scope-title">EA package handoff</text>
        <text x="896" y="128" class="muted">27 future slots</text>
     <rect x="70" y="192" width="980" height="204" rx="18" fill="#ffffff" stroke="#d8d3c6" stroke-width="2"/>
     <text x="92" y="220" class="title">Downstream EA assembly slots</text>
     <text x="92" y="233" class="tiny">Source collection</text>
        <rect x="330" y="218" width="240" height="18" rx="6" fill="#26786f"/>
        <text x="582" y="233" class="tiny">10</text><text x="92" y="262" class="tiny">Specialist reports</text>
        <rect x="330" y="247" width="240" height="18" rx="6" fill="#26786f"/>
        <text x="582" y="262" class="tiny">10</text><text x="92" y="291" class="tiny">Public involvement</text>
        <rect x="330" y="276" width="34" height="18" rx="6" fill="#26786f"/>
        <text x="376" y="291" class="tiny">1</text><text x="92" y="320" class="tiny">Consultation</text>
        <rect x="330" y="305" width="72" height="18" rx="6" fill="#26786f"/>
        <text x="414" y="320" class="tiny">3</text><text x="92" y="349" class="tiny">Forest Plan</text>
        <rect x="330" y="334" width="34" height="18" rx="6" fill="#26786f"/>
        <text x="376" y="349" class="tiny">1</text><text x="92" y="378" class="tiny">Decision record</text>
        <rect x="330" y="363" width="48" height="18" rx="6" fill="#26786f"/>
        <text x="390" y="378" class="tiny">2</text>
     <text x="708" y="260" class="title">13/13</text>
     <text x="708" y="288" class="muted">operational gate checks passed</text>
     <text x="708" y="328" class="title">0 / 0</text>
     <text x="708" y="356" class="muted">system misses / intake omissions</text></g>
</svg>