<svg xmlns="http://www.w3.org/2000/svg" width="1120" height="620" viewBox="0 0 1120 620">
  <style>
    .eyebrow { font: 800 20px Inter, Arial, sans-serif; fill: #26786f; letter-spacing: 1.5px; text-transform: uppercase; }
    .title { font: 800 22px Inter, Arial, sans-serif; fill: #171713; }
    .step-title { font: 800 20px Inter, Arial, sans-serif; fill: #171713; }
    .cap-title { font: 850 24px Inter, Arial, sans-serif; fill: #171713; }
    .cap-copy { font: 700 16px Inter, Arial, sans-serif; fill: #5f625b; }
    .scope-title { font: 800 16px Inter, Arial, sans-serif; fill: #171713; }
    .muted { font: 700 15px Inter, Arial, sans-serif; fill: #5f625b; }
    .tiny { font: 700 12px Inter, Arial, sans-serif; fill: #5f625b; }
    .small-label { font: 800 14px Inter, Arial, sans-serif; fill: #26786f; letter-spacing: 1px; text-transform: uppercase; }
  </style>
  <rect width="1120" height="620" fill="#ffffff"/>
  <rect x="24" y="24" width="1072" height="572" rx="24" fill="#f7f6f1" stroke="#d8d3c6" stroke-width="2"/>
  <g><text x="70" y="50" class="eyebrow">System capability view</text>
     <rect x="72" y="82" width="306" height="414" rx="20" fill="#ffffff" stroke="#d8d3c6" stroke-width="2"/>
        <rect x="72" y="82" width="306" height="14" rx="7" fill="#26786f"/>
        <text x="96" y="138" class="cap-title">Structured intake</text>
        <text x="96" y="174" class="cap-copy">Proposed-action facts enter</text>
        <text x="96" y="198" class="cap-copy">the system as inspectable data.</text>
        <rect x="96" y="244" width="258" height="40" rx="12" fill="#f7f6f1" stroke="#d8d3c6" stroke-width="2"/>
            <circle cx="120" cy="264" r="7" fill="#26786f"/>
            <text x="138" y="269" class="muted">Project profile</text><rect x="96" y="302" width="258" height="40" rx="12" fill="#f7f6f1" stroke="#d8d3c6" stroke-width="2"/>
            <circle cx="120" cy="322" r="7" fill="#26786f"/>
            <text x="138" y="327" class="muted">Action elements</text><rect x="96" y="360" width="258" height="40" rx="12" fill="#f7f6f1" stroke="#d8d3c6" stroke-width="2"/>
            <circle cx="120" cy="380" r="7" fill="#26786f"/>
            <text x="138" y="385" class="muted">Evidence references</text><rect x="96" y="418" width="258" height="40" rx="12" fill="#f7f6f1" stroke="#d8d3c6" stroke-width="2"/>
            <circle cx="120" cy="438" r="7" fill="#26786f"/>
            <text x="138" y="443" class="muted">Resource indicators</text>
        <path d="M376 302 C386 302 396 302 404 302" stroke="#26786f" stroke-width="5" stroke-linecap="round"/>
             <path d="M404 302 l-12 -9 v18 z" fill="#26786f"/><rect x="407" y="82" width="306" height="414" rx="20" fill="#ffffff" stroke="#d8d3c6" stroke-width="2"/>
        <rect x="407" y="82" width="306" height="14" rx="7" fill="#26786f"/>
        <text x="431" y="138" class="cap-title">Work package</text>
        <text x="431" y="174" class="cap-copy">Selected resource scopes become</text>
        <text x="431" y="198" class="cap-copy">contract-ready planning records.</text>
        <rect x="431" y="244" width="258" height="40" rx="12" fill="#f7f6f1" stroke="#d8d3c6" stroke-width="2"/>
            <circle cx="455" cy="264" r="7" fill="#26786f"/>
            <text x="473" y="269" class="muted">Tasks and data needs</text><rect x="431" y="302" width="258" height="40" rx="12" fill="#f7f6f1" stroke="#d8d3c6" stroke-width="2"/>
            <circle cx="455" cy="322" r="7" fill="#26786f"/>
            <text x="473" y="327" class="muted">Required deliverables</text><rect x="431" y="360" width="258" height="40" rx="12" fill="#f7f6f1" stroke="#d8d3c6" stroke-width="2"/>
            <circle cx="455" cy="380" r="7" fill="#26786f"/>
            <text x="473" y="385" class="muted">Assumptions</text><rect x="431" y="418" width="258" height="40" rx="12" fill="#f7f6f1" stroke="#d8d3c6" stroke-width="2"/>
            <circle cx="455" cy="438" r="7" fill="#26786f"/>
            <text x="473" y="443" class="muted">Acceptance and signoff</text>
        <path d="M711 302 C721 302 731 302 739 302" stroke="#26786f" stroke-width="5" stroke-linecap="round"/>
             <path d="M739 302 l-12 -9 v18 z" fill="#26786f"/><rect x="742" y="82" width="306" height="414" rx="20" fill="#ffffff" stroke="#d8d3c6" stroke-width="2"/>
        <rect x="742" y="82" width="306" height="14" rx="7" fill="#26786f"/>
        <text x="766" y="138" class="cap-title">Gate and handoff</text>
        <text x="766" y="174" class="cap-copy">Review decisions are resolved</text>
        <text x="766" y="198" class="cap-copy">before EA assembly planning.</text>
        <rect x="766" y="244" width="258" height="40" rx="12" fill="#f7f6f1" stroke="#d8d3c6" stroke-width="2"/>
            <circle cx="790" cy="264" r="7" fill="#26786f"/>
            <text x="808" y="269" class="muted">Validate intake</text><rect x="766" y="302" width="258" height="40" rx="12" fill="#f7f6f1" stroke="#d8d3c6" stroke-width="2"/>
            <circle cx="790" cy="322" r="7" fill="#26786f"/>
            <text x="808" y="327" class="muted">Render package</text><rect x="766" y="360" width="258" height="40" rx="12" fill="#f7f6f1" stroke="#d8d3c6" stroke-width="2"/>
            <circle cx="790" cy="380" r="7" fill="#26786f"/>
            <text x="808" y="385" class="muted">Adjudicate choices</text><rect x="766" y="418" width="258" height="40" rx="12" fill="#f7f6f1" stroke="#d8d3c6" stroke-width="2"/>
            <circle cx="790" cy="438" r="7" fill="#26786f"/>
            <text x="808" y="443" class="muted">EA assembly checklist</text>
     <rect x="72" y="530" width="976" height="48" rx="16" fill="#eef6f3" stroke="#b8d6cf" stroke-width="2"/>
     <text x="96" y="560" class="muted">The same canonical package supports inspection, review, and downstream planning without changing the source of truth.</text></g>
</svg>