<svg xmlns="http://www.w3.org/2000/svg" width="1120" height="430" viewBox="0 0 1120 430">
  <defs>
    <filter id="shadow" x="-20%" y="-20%" width="140%" height="140%">
      <feDropShadow dx="0" dy="10" stdDeviation="10" flood-color="#181c1a" flood-opacity="0.12"/>
    </filter>
  </defs>
  <style>
    .eyebrow { font: 800 20px Inter, Arial, sans-serif; fill: #26786f; letter-spacing: 1.5px; text-transform: uppercase; }
    .title { font: 800 22px Inter, Arial, sans-serif; fill: #171713; }
    .scope-title { font: 800 16px Inter, Arial, sans-serif; fill: #171713; }
    .muted { font: 700 15px Inter, Arial, sans-serif; fill: #5f625b; }
    .tiny { font: 700 12px Inter, Arial, sans-serif; fill: #5f625b; }
    .small-label { font: 800 14px Inter, Arial, sans-serif; fill: #26786f; letter-spacing: 1px; text-transform: uppercase; }
  </style>
  <rect width="1120" height="430" fill="#ffffff"/>
  <rect x="24" y="24" width="1072" height="382" rx="24" fill="#f7f6f1" stroke="#d8d3c6" stroke-width="2"/>
  <g filter="url(#shadow)"><text x="70" y="42" class="eyebrow">Contract-ready scope library</text>
     <rect x="72" y="70" width="455" height="48" rx="10" fill="#ffffff" stroke="#d8d3c6" stroke-width="2"/>
        <circle cx="96" cy="94" r="10" fill="#26786f"/>
        <text x="116" y="92" class="scope-title">NEPA project management</text>
        <text x="116" y="110" class="tiny">nepa_project_management / 3 required, 3 optional</text><rect x="572" y="70" width="455" height="48" rx="10" fill="#ffffff" stroke="#d8d3c6" stroke-width="2"/>
        <circle cx="596" cy="94" r="10" fill="#26786f"/>
        <text x="616" y="92" class="scope-title">Lands/realty land exchange</text>
        <text x="616" y="110" class="tiny">lands_realty_land_exchange / 3 required, 3 optional</text><rect x="72" y="128" width="455" height="48" rx="10" fill="#ffffff" stroke="#d8d3c6" stroke-width="2"/>
        <circle cx="96" cy="152" r="10" fill="#26786f"/>
        <text x="116" y="150" class="scope-title">Forest Plan consistency</text>
        <text x="116" y="168" class="tiny">forest_plan_consistency / 3 required, 3 optional</text><rect x="572" y="128" width="455" height="48" rx="10" fill="#ffffff" stroke="#d8d3c6" stroke-width="2"/>
        <circle cx="596" cy="152" r="10" fill="#26786f"/>
        <text x="616" y="150" class="scope-title">Wildlife/species/botany</text>
        <text x="616" y="168" class="tiny">wildlife_species_botany / 3 required, 3 optional</text><rect x="72" y="186" width="455" height="48" rx="10" fill="#ffffff" stroke="#d8d3c6" stroke-width="2"/>
        <circle cx="96" cy="210" r="10" fill="#26786f"/>
        <text x="116" y="208" class="scope-title">Cultural/tribal resources</text>
        <text x="116" y="226" class="tiny">cultural_tribal_resources / 3 required, 3 optional</text><rect x="572" y="186" width="455" height="48" rx="10" fill="#ffffff" stroke="#d8d3c6" stroke-width="2"/>
        <circle cx="596" cy="210" r="10" fill="#26786f"/>
        <text x="616" y="208" class="scope-title">Hydrology/wetlands/water</text>
        <text x="616" y="226" class="tiny">hydrology_wetlands_water_quality / 3 required, 3 optional</text><rect x="72" y="244" width="455" height="48" rx="10" fill="#ffffff" stroke="#d8d3c6" stroke-width="2"/>
        <circle cx="96" cy="268" r="10" fill="#26786f"/>
        <text x="116" y="266" class="scope-title">Roads/access/recreation</text>
        <text x="116" y="284" class="tiny">roads_access_recreation_designated_areas / 3 required, 3 optional</text><rect x="572" y="244" width="455" height="48" rx="10" fill="#ffffff" stroke="#d8d3c6" stroke-width="2"/>
        <circle cx="596" cy="268" r="10" fill="#26786f"/>
        <text x="616" y="266" class="scope-title">Vegetation/soils/air</text>
        <text x="616" y="284" class="tiny">vegetation_soils_air_quality / 3 required, 3 optional</text><rect x="72" y="302" width="455" height="48" rx="10" fill="#ffffff" stroke="#d8d3c6" stroke-width="2"/>
        <circle cx="96" cy="326" r="10" fill="#26786f"/>
        <text x="116" y="324" class="scope-title">Minerals/hazmat</text>
        <text x="116" y="342" class="tiny">minerals_energy_hazardous_materials / 3 required, 3 optional</text><rect x="572" y="302" width="455" height="48" rx="10" fill="#ffffff" stroke="#d8d3c6" stroke-width="2"/>
        <circle cx="596" cy="326" r="10" fill="#26786f"/>
        <text x="616" y="324" class="scope-title">Public involvement</text>
        <text x="616" y="342" class="tiny">public_involvement_coordination / 3 required, 3 optional</text>
     <rect x="72" y="370" width="300" height="38" rx="12" fill="#eef6f3" stroke="#b8d6cf" stroke-width="2"/>
     <text x="92" y="395" class="muted">30 required deliverables</text>
     <rect x="410" y="370" width="300" height="38" rx="12" fill="#eef6f3" stroke="#b8d6cf" stroke-width="2"/>
     <text x="430" y="395" class="muted">30 optional deliverables</text>
     <rect x="748" y="370" width="300" height="38" rx="12" fill="#eef6f3" stroke="#b8d6cf" stroke-width="2"/>
     <text x="768" y="395" class="muted">Reviewer roles, timing, signoff fields</text></g>
</svg>